HIERARCHY
ROOT simHips
{
  OFFSET 54.1894 98.8072 277.207
  CHANNELS 6 Xposition Yposition Zposition Zrotation Xrotation Yrotation
  JOINT simSpine
  {
    OFFSET -0.000357326 21.3001 -0.0169156
    CHANNELS 3 Zrotation Xrotation Yrotation
    JOINT simLeftArm
    {
      OFFSET 13.5181 21.3012 -1.8203e-05
      CHANNELS 3 Zrotation Xrotation Yrotation
      JOINT simLeftForeArm
      {
        OFFSET 24.5783 -1.80796e-05 0
        CHANNELS 3 Zrotation Xrotation Yrotation
        JOINT simLeftHand
        {
          OFFSET 24.5783 0 0
          CHANNELS 3 Zrotation Xrotation Yrotation
          End Site
          {
            OFFSET 7.32568 1.52588e-05 0.0169305
          }
        }
      }
    }
    JOINT simHead
    {
      OFFSET 0 27.4458 -0.00490489
      CHANNELS 3 Zrotation Xrotation Yrotation
      End Site
      {
        OFFSET 0 0 0
      }
    }
    JOINT simRightArm
    {
      OFFSET -13.5174 21.3012 0
      CHANNELS 3 Zrotation Xrotation Yrotation
      JOINT simRightForeArm
      {
        OFFSET -24.5783 -2.24236e-05 0
        CHANNELS 3 Zrotation Xrotation Yrotation
        JOINT simRightHand
        {
          OFFSET -24.5783 1.22225e-05 0
          CHANNELS 3 Zrotation Xrotation Yrotation
          End Site
          {
            OFFSET -7.32568 1.52588e-05 0.0169305
          }
        }
      }
    }
  }
  JOINT simRightUpLeg
  {
    OFFSET -8.44614 -9.41038 0.835681
    CHANNELS 3 Zrotation Xrotation Yrotation
    JOINT simRightLeg
    {
      OFFSET -8.62621e-05 -40.9639 0.00178026
      CHANNELS 3 Zrotation Xrotation Yrotation
      JOINT simRightFoot
      {
        OFFSET 0 -40.9639 0
        CHANNELS 3 Zrotation Xrotation Yrotation
        End Site
        {
          OFFSET 0.50614 -9.67405 14.6709
        }
      }
    }
  }
  JOINT simLeftUpLeg
  {
    OFFSET 8.44614 -9.41038 0.835691
    CHANNELS 3 Zrotation Xrotation Yrotation
    JOINT simLeftLeg
    {
      OFFSET -0.000115524 -40.9639 -0.000363106
      CHANNELS 3 Zrotation Xrotation Yrotation
      JOINT simLeftFoot
      {
        OFFSET 1.10309e-05 -40.964 5.32319e-05
        CHANNELS 3 Zrotation Xrotation Yrotation
        End Site
        {
          OFFSET -0.50614 -9.67405 14.6709
        }
      }
    }
  }
}
MOTION
Frames:	29
Frame Time:	0.0333333
6.92031 94.6634 -172.473 -2.82907 4.45935 1.10699 -0.249413 0.380107 0.140481 -81.5624 23.683 -2.66391 14.568 -2.79823 -24.015 0.724802 -8.27512 0.669282 8.84074 -4.67317 -22.1657 89.2945 17.4193 -2.53778 -13.1749 -2.88568 22.8216 0.414628 -3.81352 -0.31092 -2.11886 -8.75483 -0.372599 1.55307 31.2794 -1.90244 3.26578 -3.51201 -18.9998 -1.35368 -14.874 0.722202 -2.70243 37.4838 2.38767 -4.35875 -4.06222 17.9382 
7.02443 94.6534 -172.585 -2.8247 4.52502 1.14046 -0.208676 0.593621 -0.82909 -81.941 22.8649 -2.39101 14.7134 -2.86575 -24.2961 0.721546 -8.19108 0.666489 8.46922 -4.64032 -19.6561 88.8542 18.6509 -2.38643 -13.194 -2.88133 22.7847 0.430253 -4.07502 -0.301022 -2.21283 -8.93593 -0.452214 1.54894 31.3369 -1.90117 3.30108 -3.44079 -18.9776 -1.43411 -15.0542 0.794726 -2.69309 37.455 2.3814 -4.36129 -4.06151 17.9654 
7.14374 94.6586 -172.739 -3.01611 4.65548 1.2065 -0.172778 1.01162 -0.761498 -81.7677 23.3331 -2.73367 14.7875 -2.89551 -24.421 0.750706 -8.55847 0.683338 8.65323 -5.37979 -19.5864 88.6633 18.33 -1.96557 -13.1429 -2.86415 22.6917 0.421734 -3.90994 -0.306635 -2.07278 -9.16038 -0.480229 1.54056 31.293 -1.89532 3.34419 -3.33232 -19.0107 -1.26274 -15.3683 0.940325 -2.6868 37.5145 2.37669 -4.36584 -4.02161 17.8418 
7.29164 94.7041 -172.964 -3.34381 5.05805 1.38773 -0.139967 1.51021 0.014953 -81.1597 24.7936 -3.58437 14.8806 -2.92193 -24.5325 0.778795 -9.05256 0.705864 9.26103 -6.64603 -20.5555 88.6752 17.0011 -1.36638 -13.1408 -2.87543 22.7177 0.406663 -3.60273 -0.317207 -1.82644 -9.70168 -0.608789 1.52767 31.1847 -1.88193 3.46962 -3.01395 -19.0449 -1.08765 -16.0013 0.688879 -2.6724 37.5452 2.3633 -4.47143 -3.85041 17.9334 
7.44898 94.7866 -173.192 -3.82732 5.6643 1.50417 0.173983 1.72944 -0.258984 -81.0622 24.9698 -3.81824 15.0736 -2.99913 -24.8518 0.78476 -9.17969 0.712166 9.58996 -7.47167 -20.734 88.4782 17.2733 -0.946382 -13.2209 -2.90271 22.826 0.423741 -3.83356 -0.308119 -1.41226 -10.4327 -0.679562 1.50714 30.9453 -1.85561 3.59668 -2.65638 -19.0218 -0.734447 -16.9702 0.552251 -2.64915 37.668 2.34698 -4.61676 -3.61778 18.0383 
7.6301 94.886 -173.411 -4.4666 6.35719 1.47185 0.697748 1.96269 -0.522023 -80.9641 24.9174 -4.14694 15.2124 -3.05682 -25.0862 0.794779 -9.31959 0.718984 9.71514 -8.10658 -20.0264 88.2148 17.9508 -0.535038 -13.3458 -2.94876 22.9972 0.449002 -4.20242 -0.293886 -0.862831 -11.1789 -0.712666 1.48579 30.5306 -1.81806 3.67742 -2.34775 -18.8885 -0.222054 -17.9652 0.530853 -2.61704 37.7378 2.32507 -4.79407 -3.39703 18.2627 
7.80929 94.9642 -173.67 -5.09191 7.18266 1.57852 1.05391 2.28689 -0.423883 -80.5618 25.2541 -4.66818 15.4965 -3.16834 -25.5316 0.820687 -9.65561 0.734457 10.0097 -9.38996 -20.0664 88.1194 18.4284 -0.0972531 -13.5379 -3.02436 23.2969 0.477468 -4.63017 -0.277287 -0.439975 -11.9433 -1.06779 1.46813 30.1546 -1.77094 3.47345 -2.81925 -19.0087 0.308121 -19.164 0.62144 -2.58008 37.8287 2.29668 -4.95699 -3.1355 18.3043 
7.97719 95.0315 -173.976 -5.51676 8.02991 1.8409 1.08414 2.61186 -0.125879 -79.877 25.6148 -5.44029 15.7396 -3.26496 -25.9091 0.83942 -9.90317 0.745747 10.3372 -10.7573 -20.4561 88.1513 18.7732 0.305757 -13.6859 -3.08152 23.5304 0.489953 -4.80908 -0.269897 -0.406133 -12.7065 -1.80687 1.47118 30.2928 -1.73049 2.78831 -4.4083 -18.8256 0.644975 -20.4159 0.805326 -2.54724 37.8747 2.26471 -5.06453 -2.83457 18.0729 
8.17055 95.0912 -174.185 -5.80955 8.56523 2.12432 1.14208 2.8555 -0.120686 -79.5057 25.1769 -5.96649 15.9361 -3.3505 -26.2345 0.837476 -9.90659 0.745764 10.2585 -11.7595 -19.8575 88.0277 19.7353 0.434152 -13.7118 -3.0829 23.5543 0.500268 -4.96667 -0.263344 -0.577141 -12.477 -2.61479 1.49233 31.1079 -1.75538 2.39804 -5.34868 -18.5745 0.790883 -21.0977 0.835822 -2.53251 37.7268 2.23943 -5.11902 -2.62052 17.8923 
8.33756 95.1761 -174.348 -6.09187 8.82941 2.56286 1.25318 2.89804 -0.515627 -79.3642 23.9048 -6.25408 16.0679 -3.41528 -26.4771 0.810627 -9.58172 0.730695 9.95043 -11.95 -18.2622 87.8853 21.0663 0.437452 -13.5482 -3.00361 23.2589 0.491764 -4.83282 -0.267896 -0.624902 -11.2437 -3.06426 1.52865 33.0693 -1.8758 2.39635 -5.57515 -19.308 0.995121 -21.5287 0.898354 -2.53384 37.5837 2.22831 -5.10655 -2.32931 17.3836 
8.48787 95.3173 -174.448 -6.46661 8.98505 3.33998 1.08851 2.8985 1.20218 -78.3572 24.9503 -7.27334 16.2493 -3.48669 -26.7286 0.852404 -10.0453 0.752036 10.2184 -12.2765 -21.1437 88.4493 19.5537 0.304145 -13.3797 -2.95034 23.075 0.440509 -4.11874 -0.294302 -0.499829 -9.20502 -3.283 1.59081 35.8713 -2.08068 2.84178 -4.76872 -20.0336 1.34865 -21.7961 0.998313 -2.54676 37.2967 2.21462 -4.99783 -1.97308 16.4504 
8.65191 95.5258 -174.482 -6.94571 9.12535 4.21834 1.37712 2.6711 1.51642 -78.2502 24.3624 -7.47701 16.6728 -3.6813 -27.4297 0.916718 -10.7978 0.787365 10.0834 -11.9815 -21.8531 88.508 19.5898 0.246363 -13.2389 -2.89434 22.8692 0.42749 -3.95896 -0.29996 -0.266945 -6.57114 -3.38575 1.66478 38.9819 -2.35576 4.30041 -1.48104 -19.8523 1.76842 -21.9014 1.0189 -2.55363 36.8006 2.19145 -4.89289 -1.49145 15.4762 
8.82469 95.763 -174.389 -7.287 9.14541 4.90667 1.5363 2.24447 1.91847 -78.387 23.8698 -7.1053 17.2538 -3.95641 -28.4034 1.0178 -11.9753 0.84447 9.91979 -11.5657 -22.3818 88.6044 19.6446 0.0203015 -13.142 -2.85674 22.7261 0.417049 -3.82556 -0.304736 -0.218172 -3.88462 -3.39793 1.76405 42.5459 -2.68954 5.9073 2.8013 -18.7308 2.11054 -21.6149 1.09961 -2.56328 36.0117 2.15787 -4.74252 -1.00633 14.4649 
9.01906 95.9829 -174.216 -7.52117 9.23745 5.36714 1.60378 1.6336 2.45807 -78.6087 23.5426 -6.45095 17.7981 -4.22415 -29.3162 1.09287 -12.8771 0.889555 9.90707 -11.1182 -22.6796 88.6601 19.6929 -0.170497 -13.1093 -2.84385 22.685 0.410079 -3.75746 -0.307286 -0.437118 -1.58441 -3.54561 1.94339 46.2405 -3.00617 6.26952 4.97865 -16.79 2.35189 -21.2553 1.17544 -2.57018 35.0924 2.11345 -4.5963 -0.468596 13.482 
9.19934 96.222 -174.009 -7.78764 9.35681 5.69383 1.6775 0.989867 3.0338 -78.8005 23.1559 -5.79566 18.0933 -4.3751 -29.8146 1.12628 -13.2725 0.909634 9.78236 -11.0227 -22.8225 88.6575 19.8586 -0.28435 -13.1814 -2.8713 22.8055 0.40776 -3.73375 -0.308376 -0.668492 0.716022 -3.91009 2.14251 49.198 -3.29725 6.44457 6.53057 -15.4809 2.60164 -20.8741 1.09391 -2.56767 34.2331 2.06641 -4.46092 -0.0860079 12.7287 
9.36849 96.4777 -173.818 -8.07751 9.49721 6.09617 2.01089 0.362461 2.02185 -79.6371 21.105 -4.56681 18.2512 -4.47063 -30.1277 1.10668 -13.0014 0.895487 9.17346 -10.6676 -19.7157 88.1378 21.8817 -0.174969 -13.3669 -2.92771 23.0223 0.458961 -4.44314 -0.282421 -0.92167 2.69647 -4.66855 2.26966 51.5901 -3.5848 7.41081 9.75174 -15.2298 2.93603 -20.5305 1.2289 -2.55051 33.3684 2.01137 -4.26507 0.338938 11.766 
9.52948 96.7008 -173.656 -8.59796 9.61985 6.34706 2.15896 -0.058615 3.8511 -79.297 22.0209 -4.53928 18.0074 -4.32912 -29.6448 1.09034 -12.7969 0.884791 9.46734 -10.9552 -22.5717 88.316 20.5588 -0.075749 -13.689 -3.0734 23.6137 0.467026 -4.57938 -0.290925 -0.99252 4.24149 -5.38375 2.38255 53.537 -3.84873 8.37464 12.6578 -15.3977 3.51243 -20.3292 1.32093 -2.53046 32.7891 1.96847 -4.0981 0.595761 11.0193 
9.65373 96.8715 -173.552 -9.1827 9.74874 6.43517 2.62223 -0.265154 4.13743 -79.4221 21.0603 -4.43269 17.5337 -4.08965 -28.8286 1.01922 -11.9194 0.84053 9.44732 -11.2459 -22.8358 87.8435 21.182 0.463285 -14.0556 -3.22003 24.1926 0.478777 -4.76163 -0.288288 -1.03172 5.22589 -5.91223 2.53842 55.2391 -4.06384 8.58945 13.8669 -15.0227 4.14741 -20.2954 1.36452 -2.50404 32.4279 1.93584 -4.05168 0.846418 10.6335 
9.72903 97.0112 -173.46 -9.71791 9.8834 6.48718 2.86013 -0.516295 4.61538 -79.3485 20.5617 -4.32073 16.9778 -3.81926 -27.873 0.937787 -10.9014 0.790775 9.58749 -11.2432 -23.4964 87.5502 21.8217 0.905469 -14.6256 -3.46609 25.1125 0.541617 -5.55954 -0.264659 -1.05485 5.75417 -6.28175 2.69469 56.5902 -4.23692 8.54495 14.4374 -14.51 4.74832 -20.3404 1.5332 -2.47652 32.2163 1.91125 -4.05974 1.08637 10.4185 
9.81085 97.1143 -173.368 -10.0268 10.0219 6.34709 2.91041 -0.65145 5.03112 -79.2552 20.1379 -4.33809 16.4159 -3.55545 -26.9096 0.877928 -10.1428 0.754588 9.69973 -11.3292 -23.9817 87.2181 22.5217 1.32086 -15.2836 -3.75815 26.1769 0.600076 -6.38707 -0.241415 -1.3457 5.76126 -6.3773 2.82917 57.7946 -4.40579 8.61571 15.6733 -13.8952 4.9909 -20.3199 1.55298 -2.45103 31.9737 1.89326 -4.23462 1.29441 10.7482 
9.88487 97.193 -173.282 -10.2055 10.098 6.35194 2.87192 -0.583268 4.80157 -79.2874 19.3007 -4.41589 15.9272 -3.33972 -26.1005 0.827939 -9.50199 0.724659 9.72672 -11.4016 -23.5406 86.7362 23.5665 1.92752 -15.9458 -4.05998 27.2244 0.659649 -7.22614 -0.213406 -1.64924 5.48439 -6.47954 2.95581 58.9007 -4.57675 8.73212 17.4257 -13.195 5.04407 -20.2208 1.51726 -2.4297 31.6877 1.87633 -4.4006 1.44428 11.1181 
9.93718 97.2292 -173.182 -10.2749 10.0589 6.35377 2.50271 -0.488769 5.34327 -78.9546 19.6276 -4.64675 15.541 -3.1678 -25.435 0.799833 -9.1434 0.704368 10.2091 -11.4482 -25.134 86.7843 23.6544 2.07483 -16.7117 -4.44057 28.5033 0.716282 -7.96218 -0.194088 -1.92434 5.05773 -6.48561 3.11392 60.0333 -4.76364 8.73135 18.474 -12.6746 5.06221 -19.9756 1.57617 -2.41301 31.4039 1.85927 -4.50096 1.56108 11.3147 
9.96579 97.2705 -173.117 -10.1525 10.0599 6.31981 1.98933 -0.425249 5.25679 -78.8333 19.4624 -4.68819 15.3168 -3.07536 -25.0679 0.79396 -9.06346 0.700139 10.5142 -11.319 -24.8924 86.7351 24.2229 2.25776 -17.2753 -4.71849 29.4114 0.721739 -8.09818 -0.195326 -2.3108 4.25977 -6.49362 3.32086 61.3224 -4.97892 8.5741 18.5522 -12.2815 5.04523 -19.7642 2.07432 -2.40069 31.1036 1.83387 -4.39134 1.67808 10.9022 
9.99615 97.3013 -173.087 -10.1315 9.9964 6.4895 1.7351 -0.265015 4.66671 -78.942 19.0312 -4.73134 15.1853 -3.02547 -24.8662 0.781887 -8.90327 0.692422 10.264 -11.3645 -23.8164 86.537 25.0869 2.43815 -17.6957 -4.92756 30.0683 0.734746 -8.2877 -0.191253 -2.43256 3.37686 -6.63439 3.52972 62.5096 -5.20265 8.51091 18.4183 -12.1793 5.03356 -19.6102 2.23805 -2.38839 30.9024 1.81184 -4.32152 1.76744 10.6265 
10.0601 97.3145 -173.054 -10.107 9.87048 6.82826 1.55997 -0.112609 4.14428 -79.1165 19.0535 -4.74231 15.2398 -3.05003 -24.9666 0.780792 -8.88576 0.691106 9.86651 -11.2442 -23.1414 86.4395 25.6981 2.33684 -18.0326 -5.10412 30.6078 0.765622 -8.75015 -0.172066 -2.50211 2.60057 -6.96045 3.68509 63.3806 -5.38309 8.56656 18.5574 -12.2084 4.9336 -19.4279 2.22171 -2.38201 30.7483 1.79616 -4.26553 1.86763 10.3977 
10.1395 97.3153 -173.019 -10.0118 9.7156 7.2462 1.24167 -0.0334837 3.93881 -79.1003 19.5181 -4.94672 15.2985 -3.07514 -25.0699 0.788505 -8.98073 0.694873 10.0127 -10.6026 -23.3151 86.6 25.6871 2.01664 -18.178 -5.18407 30.8562 0.781033 -8.9575 -0.163007 -2.59979 1.93162 -7.36913 3.76003 63.8636 -5.48517 8.70192 18.5801 -12.4496 4.79377 -19.257 2.24425 -2.38851 30.6661 1.7867 -4.08717 1.89913 9.87734 
10.2016 97.2873 -172.979 -9.94379 9.51283 7.50336 1.01553 0.122926 3.88065 -79.1146 19.948 -5.24253 15.4395 -3.13375 -25.3054 0.80885 -9.23802 0.706022 10.0464 -10.2518 -23.3131 86.6948 25.5478 1.77899 -18.0759 -5.12644 30.6901 0.77949 -8.82169 -0.15989 -2.63246 1.34536 -7.58608 3.77006 63.994 -5.51305 8.81446 18.6268 -12.6441 4.7402 -19.0992 2.28958 -2.39926 30.7687 1.78946 -3.90947 1.80711 9.4347 
10.2702 97.23 -172.934 -9.84681 9.32072 7.71087 0.799332 0.235338 3.96056 -79.173 20.5629 -5.44314 15.7149 -3.24975 -25.7632 0.850159 -9.76178 0.729435 9.84455 -10.1502 -23.432 86.8439 25.1988 1.48463 -17.8349 -4.99995 30.3022 0.773751 -8.7441 -0.15997 -2.73322 0.793524 -7.77606 3.74529 63.9104 -5.48488 8.75997 18.5814 -12.5523 4.65015 -18.9575 2.37249 -2.41525 30.955 1.79808 -3.70194 1.55699 9.01458 
10.3376 97.1559 -172.88 -9.6716 9.10353 7.87103 0.484667 0.249733 4.01081 -79.2265 21.041 -5.52803 15.9915 -3.36985 -26.2336 0.88218 -10.1649 0.747716 9.65047 -9.81605 -23.3064 87.1197 24.685 1.127 -17.4607 -4.80848 29.6929 0.773633 -8.73371 -0.163978 -2.92292 0.293109 -7.93526 3.69533 63.6866 -5.42631 8.64983 18.7167 -12.2755 4.46742 -18.7449 2.36513 -2.43162 31.1176 1.80926 -3.55749 1.39928 8.70926 
